# xmcd
#
# Track frame offsets: 
#        150
#        26667
#        55049
#        72093
#        94641
#        115948
#        138177
#        159515
#        181511
#        206675
#        231624
#        253372
#        277543
#        301790
#        329536
#
# Disc length: 4697 seconds
#
# Revision: 0
# Processed by: cddbd v1.5.2PL0 Copyright (c) Steve Scherf et al.
# Submitted via: ExactAudioCopy v1.0b3
#
DISCID=c812570f
DTITLE=Various Artist - D.Techno Vol. 31 - CD 2
DYEAR=1900
DGENRE=
TTITLE0=Shockwave - Get Loud (Original Mix)
TTITLE1=DJ Coone - Headbanger
TTITLE2=Bass Modulators and Frequencerz - Bring Back The Funk (Radio Edi
TTITLE2=t)
TTITLE3=Scope DJ - Droid (Original Mix)
TTITLE4=D-Block and S-Te-Fan Feat. Mc Villain - X Gonna Give It To Ya
TTITLE5=The Prophet and Popr3b3l - So Wrong (Original Mix)
TTITLE6=Betavoice - Replace The Sun
TTITLE7=Shockerz Feat. Kirsten - Set Me Free (Original Mix)
TTITLE8=Artic - Emotion (Original Mix)
TTITLE9=Da Daze - From The Past
TTITLE10=Arboza and Asylum - We Burn (The Machine Enchanted)
TTITLE11=Deepack - C In U
TTITLE12=D10 - War Never Changes
TTITLE13=DJ Zany and DV8 - Break Away (Toneshifterz Remix)
TTITLE14=Jack Of Sound - Zombies (Original Mix)
EXTD=
EXTT0=
EXTT1=
EXTT2=
EXTT3=
EXTT4=
EXTT5=
EXTT6=
EXTT7=
EXTT8=
EXTT9=
EXTT10=
EXTT11=
EXTT12=
EXTT13=
EXTT14=
PLAYORDER=
